/* XPM */
static char * ardei_xpm[] = {
"20 25 305 2",
"  	c #689090",
". 	c #89BE6C",
"+ 	c #729551",
"@ 	c #75A659",
"# 	c #92C479",
"$ 	c #718A4B",
"% 	c #75A65A",
"& 	c #80B064",
"* 	c #74A956",
"= 	c #87BC69",
"- 	c #6F803F",
"; 	c #728F49",
"> 	c #75A559",
", 	c #687E45",
"' 	c #7FAF64",
") 	c #70A751",
"! 	c #707C3B",
"~ 	c #718442",
"{ 	c #0F1A09",
"] 	c #070E04",
"^ 	c #79A95C",
"/ 	c #8BB96C",
"( 	c #98C69D",
"_ 	c #74A558",
": 	c #5E6937",
"< 	c #6D7E48",
"[ 	c #74AB53",
"} 	c #8DC071",
"| 	c #6D8E41",
"1 	c #6F7A3A",
"2 	c #76A75B",
"3 	c #7AA960",
"4 	c #000000",
"5 	c #6AA24C",
"6 	c #6AA14D",
"7 	c #76A457",
"8 	c #90B16F",
"9 	c #97A668",
"0 	c #6B5C2E",
"a 	c #6E843E",
"b 	c #6A8A40",
"c 	c #7FB65C",
"d 	c #72A253",
"e 	c #243617",
"f 	c #8FA85B",
"g 	c #8E5924",
"h 	c #898C45",
"i 	c #1F2D14",
"j 	c #76A659",
"k 	c #77AA5A",
"l 	c #689F4B",
"m 	c #76A358",
"n 	c #889E55",
"o 	c #9C954D",
"p 	c #A48D48",
"q 	c #9E914B",
"r 	c #8E9852",
"s 	c #7FAD5B",
"t 	c #789C51",
"u 	c #7DAF56",
"v 	c #7E833E",
"w 	c #201104",
"x 	c #A88C45",
"y 	c #A6944A",
"z 	c #969A50",
"A 	c #82A257",
"B 	c #6EA250",
"C 	c #75A15A",
"D 	c #849D56",
"E 	c #9E8F4B",
"F 	c #AD863F",
"G 	c #A79237",
"H 	c #AC8B3B",
"I 	c #A88943",
"J 	c #97A053",
"K 	c #554324",
"L 	c #62401F",
"M 	c #030200",
"N 	c #8D6E31",
"O 	c #AA8D32",
"P 	c #B98D34",
"Q 	c #B69440",
"R 	c #999A50",
"S 	c #8BB97B",
"T 	c #689C4A",
"U 	c #769F59",
"V 	c #909451",
"W 	c #AA8441",
"X 	c #A28D33",
"Y 	c #9B9620",
"Z 	c #9A9420",
"` 	c #A78430",
" .	c #B5A373",
"..	c #8FB286",
"+.	c #673A17",
"@.	c #6D4D1B",
"#.	c #5F5218",
"$.	c #B0AA26",
"%.	c #BDB832",
"&.	c #BE9A3E",
"*.	c #B09743",
"=.	c #A3CD9F",
"-.	c #6A7C44",
";.	c #769756",
">.	c #908649",
",.	c #A27B3B",
"'.	c #857E25",
").	c #2A2915",
"!.	c #75711A",
"~.	c #95862B",
"{.	c #A88940",
"].	c #839D70",
"^.	c #6D4C20",
"/.	c #634312",
"(.	c #464108",
"_.	c #B1AC69",
":.	c #D9D252",
"<.	c #DACA95",
"[.	c #C5A978",
"}.	c #8BB97C",
"|.	c #697941",
"1.	c #717741",
"2.	c #858348",
"3.	c #9C783B",
"4.	c #8F732A",
"5.	c #6A660F",
"6.	c #7F771E",
"7.	c #9C772E",
"8.	c #A08B44",
"9.	c #678545",
"0.	c #6D5E2C",
"a.	c #7C5820",
"b.	c #7C631B",
"c.	c #B7B128",
"d.	c #C7C05F",
"e.	c #CBA970",
"f.	c #AF9C5B",
"g.	c #89B677",
"h.	c #6D7034",
"i.	c #787534",
"j.	c #8F702E",
"k.	c #9B6B27",
"l.	c #8F6C25",
"m.	c #99722F",
"n.	c #997B3A",
"o.	c #8A8B47",
"p.	c #678C49",
"q.	c #626F36",
"r.	c #806D30",
"s.	c #97732D",
"t.	c #B18F34",
"u.	c #BB943B",
"v.	c #B19643",
"w.	c #989F4B",
"x.	c #8EBB7E",
"y.	c #697940",
"z.	c #6D7135",
"A.	c #707935",
"B.	c #827732",
"C.	c #94702C",
"D.	c #99712F",
"E.	c #9B7A39",
"F.	c #938342",
"G.	c #7E914B",
"H.	c #68914B",
"I.	c #5C7839",
"J.	c #757836",
"K.	c #927E37",
"L.	c #AC8C3C",
"M.	c #B29441",
"N.	c #A39947",
"O.	c #6E7F3B",
"P.	c #7EAE67",
"Q.	c #6A7839",
"R.	c #6B7936",
"S.	c #6E7F37",
"T.	c #787B37",
"U.	c #847C38",
"V.	c #828D48",
"W.	c #77934C",
"X.	c #6D964F",
"Y.	c #649147",
"Z.	c #58843D",
"`.	c #649042",
" +	c #739345",
".+	c #8E9C4B",
"++	c #92A14D",
"@+	c #6E8840",
"#+	c #697A41",
"$+	c #6F7336",
"%+	c #6F7437",
"&+	c #6F8141",
"*+	c #6B7837",
"=+	c #212C11",
"-+	c #FFFFFF",
";+	c #202A0D",
">+	c #202A0E",
",+	c #213716",
"'+	c #7DA951",
")+	c #2F421C",
"!+	c #233314",
"~+	c #6B6C32",
"{+	c #77723A",
"]+	c #6F793C",
"^+	c #22260E",
"/+	c #21280F",
"(+	c #212D12",
"_+	c #20270C",
":+	c #20280D",
"<+	c #263716",
"[+	c #77A24C",
"}+	c #76A14B",
"|+	c #47622B",
"1+	c #141F09",
"2+	c #6B6630",
"3+	c #776E38",
"4+	c #6D6E35",
"5+	c #23270F",
"6+	c #21250D",
"7+	c #222C12",
"8+	c #212A0F",
"9+	c #222D11",
"0+	c #21290E",
"a+	c #233011",
"b+	c #253514",
"c+	c #739E48",
"d+	c #527232",
"e+	c #6B6735",
"f+	c #6D612F",
"g+	c #726632",
"h+	c #6D6530",
"i+	c #21210C",
"j+	c #232C12",
"k+	c #222C11",
"l+	c #233215",
"m+	c #233213",
"n+	c #212B0F",
"o+	c #233412",
"p+	c #719B45",
"q+	c #30441A",
"r+	c #18260F",
"s+	c #6C562D",
"t+	c #867242",
"u+	c #6C5A2F",
"v+	c #737E42",
"w+	c #23240E",
"x+	c #22210C",
"y+	c #242A12",
"z+	c #22220C",
"A+	c #232B12",
"B+	c #233513",
"C+	c #223413",
"D+	c #223412",
"E+	c #6D9A42",
"F+	c #6E9A43",
"G+	c #598142",
"H+	c #6C502C",
"I+	c #836D3F",
"J+	c #6D572E",
"K+	c #747C41",
"L+	c #22230E",
"M+	c #22240E",
"N+	c #252A12",
"O+	c #211D0A",
"P+	c #22270F",
"Q+	c #22290F",
"R+	c #223313",
"S+	c #6D9A43",
"T+	c #6E9B43",
"U+	c #74A657",
"V+	c #6C4C2A",
"W+	c #7E663A",
"X+	c #6D522C",
"Y+	c #73733C",
"Z+	c #20230E",
"`+	c #21250F",
" @	c #252912",
".@	c #B42121",
"+@	c #211B0A",
"@@	c #212E10",
"#@	c #213311",
"$@	c #6B9941",
"%@	c #6E9C45",
"&@	c #6E502D",
"*@	c #795A34",
"=@	c #6F4C2B",
"-@	c #6F5A32",
";@	c #20230D",
">@	c #20240E",
",@	c #262911",
"'@	c #231F0C",
")@	c #211C09",
"!@	c #1F2C0D",
"~@	c #678F3B",
"{@	c #6B953F",
"]@	c #729F4E",
"^@	c #6E522F",
"/@	c #6C4628",
"(@	c #6C4528",
"_@	c #271A0C",
":@	c #221508",
"<@	c #1F0B04",
"[@	c #211508",
"}@	c #69803A",
"|@	c #75A558",
"                                        ",
"                    .                   ",
"                + @ #                   ",
"        @ @ $ % & & * = - ; >           ",
"      @ @ @ @ , ' & ) # ! ~ { ] @       ",
"    @ ^ / / ( _ : < [ } | 1 2 3 4 @     ",
"    5 6 7 8 9 0 a b c d e f g h i j     ",
"  k l m n o p q r s t u v w x y z A @   ",
"  B C D E F G H I J K L M N O P Q R S   ",
"  T U V W X Y Z `  ...+.@.#.$.%.&.*.=.@ ",
"  -.;.>.,.'.).!.~.{.].^./.(._.:.<.[.}.@ ",
"  |.1.2.3.4.5.6.7.8.9.0.a.b.c.d.e.f.g.@ ",
"  |.h.i.j.k.l.m.n.o.p.q.r.s.t.u.v.w.x.  ",
"  y.z.A.B.C.D.E.F.G.H.I.J.K.L.M.N.O.P.  ",
"  Q.z.R.S.T.U.V.W.X.Y.Z.`. +.+++@+4 @   ",
"    #+$+%+&+*+=+-+-+;+>+-+,+'+'+)+!+@   ",
"    |.~+{+]+^+/+-+(+_+:+-+<+[+}+|+1+    ",
"    y.2+3+4+5+6+7+7+8+9+0+a+b+c+d+4     ",
"    e+f+g+h+5+i+j+7+k+l+m+n+o+p+q+r+    ",
"    s+t+u+v+w+x+y+y+z+A+B+C+D+E+F+G+    ",
"    H+I+J+K+L+M+N+N+O+P+Q+R+D+S+T+U+    ",
"    V+W+X+Y+Z+`+ @ @.@+@0+@@#@$@%@@     ",
"    &@*@=@-@;@>@,@'@.@.@)@!@~@{@]@      ",
"        ^@/@/@(@_@:@.@<@[@}@|@          ",
"                                        "};
