/* XPM */
static char * ardei_xpm[] = {
"49 60 385 2",
"  	c None",
". 	c #689090",
"+ 	c #6D9F70",
"@ 	c #7EB16D",
"# 	c #68918F",
"$ 	c #6C9E6F",
"% 	c #84B86A",
"& 	c #6E9988",
"* 	c #698F8C",
"= 	c #6A9187",
"- 	c #6F9976",
"; 	c #74A863",
"> 	c #7BAF61",
", 	c #7CAB7E",
"' 	c #6B9588",
") 	c #69928C",
"! 	c #6C9782",
"~ 	c #72A268",
"{ 	c #73A166",
"] 	c #719157",
"^ 	c #76A158",
"/ 	c #7EAF62",
"( 	c #7CAE5E",
"_ 	c #70A652",
": 	c #8ABB6F",
"< 	c #708B46",
"[ 	c #729154",
"} 	c #729C63",
"| 	c #709D72",
"1 	c #6A938A",
"2 	c #6E9A7B",
"3 	c #7AAA5D",
"4 	c #82B164",
"5 	c #7AAB5E",
"6 	c #83B277",
"7 	c #6D8F4E",
"8 	c #708F50",
"9 	c #7EAB61",
"0 	c #71A852",
"a 	c #8BBA6F",
"b 	c #6C7839",
"c 	c #6C8241",
"d 	c #6A9750",
"e 	c #66914E",
"f 	c #69945A",
"g 	c #6A948A",
"h 	c #6D9882",
"i 	c #7BAD5E",
"j 	c #7BAC5D",
"k 	c #80AF62",
"l 	c #85B167",
"m 	c #7FA372",
"n 	c #6E8E64",
"o 	c #5E7037",
"p 	c #6E954B",
"q 	c #76AD55",
"r 	c #88BC6A",
"s 	c #6B8F48",
"t 	c #6D8E47",
"u 	c #678752",
"v 	c #707B46",
"w 	c #706E3A",
"x 	c #759F65",
"y 	c #77A768",
"z 	c #73A855",
"A 	c #6EA351",
"B 	c #77A255",
"C 	c #879F5D",
"D 	c #8A9558",
"E 	c #71723B",
"F 	c #779352",
"G 	c #679046",
"H 	c #68974A",
"I 	c #709F52",
"J 	c #6C984E",
"K 	c #7B904C",
"L 	c #735A2B",
"M 	c #837537",
"N 	c #6C8645",
"O 	c #76A659",
"P 	c #719F70",
"Q 	c #6A9588",
"R 	c #70A651",
"S 	c #6BA04F",
"T 	c #7AA157",
"U 	c #919951",
"V 	c #A18F48",
"W 	c #A68D45",
"X 	c #A2914A",
"Y 	c #8D934E",
"Z 	c #79A456",
"` 	c #658846",
" .	c #6B8C47",
"..	c #6D6A34",
"+.	c #815C2B",
"@.	c #915F26",
"#.	c #A98D42",
"$.	c #9C994F",
"%.	c #83A256",
"&.	c #6F9C78",
"*.	c #699079",
"=.	c #6BA14D",
"-.	c #73A058",
";.	c #8B9953",
">.	c #A48844",
",.	c #A58B36",
"'.	c #A1942F",
").	c #A59134",
"!.	c #A88A40",
"~.	c #A0AD74",
"{.	c #768C6A",
"].	c #614220",
"^.	c #65481B",
"/.	c #826B28",
"(.	c #9D8E2B",
"_.	c #B6A033",
":.	c #B9983F",
"<.	c #9D9B51",
"[.	c #9BC08B",
"}.	c #7CAA73",
"|.	c #698A6D",
"1.	c #6C9B50",
"2.	c #779E59",
"3.	c #95904E",
"4.	c #A18239",
"5.	c #8C8627",
"6.	c #797534",
"7.	c #8F892A",
"8.	c #A68E3F",
"9.	c #BEB497",
"0.	c #B1C6B2",
"a.	c #71613E",
"b.	c #5F4313",
"c.	c #49440F",
"d.	c #8E8945",
"e.	c #C5C04B",
"f.	c #C2AE43",
"g.	c #AE9846",
"h.	c #9AB77D",
"i.	c #91BD86",
"j.	c #69846C",
"k.	c #6C864D",
"l.	c #759555",
"m.	c #93894B",
"n.	c #9A7C35",
"o.	c #746F1F",
"p.	c #3F3D1B",
"q.	c #767224",
"r.	c #9D8730",
"s.	c #A49758",
"t.	c #90AC7D",
"u.	c #72693B",
"v.	c #5F4212",
"w.	c #4B460E",
"x.	c #908D4D",
"y.	c #CDC761",
"z.	c #D6C684",
"A.	c #B7A267",
"B.	c #8CA95E",
"C.	c #8EBA80",
"D.	c #69836B",
"E.	c #6B743F",
"F.	c #70763F",
"G.	c #867C40",
"H.	c #997334",
"I.	c #867123",
"J.	c #736B19",
"K.	c #877722",
"L.	c #9E7D35",
"M.	c #929049",
"N.	c #70934D",
"O.	c #6C6E37",
"P.	c #7C5B23",
"Q.	c #836C1D",
"R.	c #A39A29",
"S.	c #C0B44A",
"T.	c #C5A868",
"U.	c #A59E59",
"V.	c #86AA5B",
"W.	c #81AE79",
"X.	c #698670",
"Y.	c #6A763F",
"Z.	c #6D7035",
"`.	c #757635",
" +	c #8A7330",
".+	c #966D29",
"++	c #946F2B",
"@+	c #987937",
"#+	c #918442",
"$+	c #7A924C",
"%+	c #6A934D",
"&+	c #607B3B",
"*+	c #7A7736",
"=+	c #967D35",
"-+	c #A78938",
";+	c #B0933E",
">+	c #A19242",
",+	c #7E9144",
"'+	c #7EAA5A",
")+	c #73A077",
"!+	c #688C86",
"~+	c #69783D",
"{+	c #6C7439",
"]+	c #6C7837",
"^+	c #717E38",
"/+	c #7D7B37",
"(+	c #817B36",
"_+	c #7E8A46",
":+	c #769351",
"<+	c #5C7F44",
"[+	c #54783C",
"}+	c #4D7435",
"|+	c #69914A",
"1+	c #779547",
"2+	c #869B4A",
"3+	c #8FA14C",
"4+	c #657938",
"5+	c #45602B",
"6+	c #78A754",
"7+	c #6E997D",
"8+	c #688D88",
"9+	c #6A7640",
"0+	c #69783F",
"a+	c #707538",
"b+	c #6D7B3A",
"c+	c #6F8342",
"d+	c #6B7D39",
"e+	c #4A6427",
"f+	c #EDEEED",
"g+	c #AAACA9",
"h+	c #1F2F12",
"i+	c #6E726C",
"j+	c #FFFFFF",
"k+	c #6A9159",
"l+	c #79A851",
"m+	c #7AA54F",
"n+	c #364C21",
"o+	c #3D5526",
"p+	c #77A34E",
"q+	c #6B9488",
"r+	c #689091",
"s+	c #697856",
"t+	c #697940",
"u+	c #6F7338",
"v+	c #717438",
"w+	c #708242",
"x+	c #4E5A2B",
"y+	c #0F1C00",
"z+	c #ECECEC",
"A+	c #898B87",
"B+	c #202B0F",
"C+	c #6E706B",
"D+	c #EFEFEF",
"E+	c #404D38",
"F+	c #648840",
"G+	c #77A14C",
"H+	c #374E21",
"I+	c #405A28",
"J+	c #74A25B",
"K+	c #698177",
"L+	c #6A743D",
"M+	c #6E6C35",
"N+	c #716D35",
"O+	c #636D36",
"P+	c #262D13",
"Q+	c #21260E",
"R+	c #787B76",
"S+	c #262F19",
"T+	c #21280D",
"U+	c #212B0F",
"V+	c #777974",
"W+	c #243313",
"X+	c #2F421B",
"Y+	c #6F9845",
"Z+	c #4C6A2E",
"`+	c #3C5729",
" @	c #71A167",
".@	c #6A8077",
"+@	c #6B6132",
"@@	c #746735",
"#@	c #706532",
"$@	c #4C4B23",
"%@	c #232810",
"&@	c #22230D",
"*@	c #232C12",
"=@	c #222A11",
"-@	c #21270E",
";@	c #233114",
">@	c #233213",
",@	c #222F10",
"'@	c #223212",
")@	c #597C35",
"!@	c #4D6B2E",
"~@	c #3A542A",
"{@	c #72A168",
"]@	c #6B562C",
"^@	c #7C693B",
"/@	c #706534",
"(@	c #474A23",
"_@	c #232710",
":@	c #22220D",
"<@	c #232B12",
"[@	c #232911",
"}@	c #22230C",
"|@	c #233014",
"1@	c #233514",
"2@	c #223412",
"3@	c #223312",
"4@	c #527430",
"5@	c #689342",
"6@	c #5E8746",
"7@	c #6F9C76",
"8@	c #6A8078",
"9@	c #6C532D",
"0@	c #7C663A",
"a@	c #706535",
"b@	c #4D542A",
"c@	c #232610",
"d@	c #22240E",
"e@	c #242A12",
"f@	c #252811",
"g@	c #2A1E0B",
"h@	c #262810",
"i@	c #222F11",
"j@	c #547933",
"k@	c #6E9C47",
"l@	c #6D9D52",
"m@	c #6D987F",
"n@	c #6A867D",
"o@	c #6D502D",
"p@	c #7A6037",
"q@	c #6F5D32",
"r@	c #646A37",
"s@	c #22250F",
"t@	c #252912",
"u@	c #592715",
"v@	c #B32121",
"w@	c #7D1F17",
"x@	c #213111",
"y@	c #253813",
"z@	c #66913D",
"A@	c #6F9E49",
"B@	c #73A461",
"C@	c #6E6E54",
"D@	c #755531",
"E@	c #6E4E2C",
"F@	c #706A38",
"G@	c #424722",
"H@	c #21250E",
"I@	c #262610",
"J@	c #581A0F",
"K@	c #B42121",
"L@	c #911E1A",
"M@	c #1E1F0A",
"N@	c #1E2C0D",
"O@	c #496528",
"P@	c #69933E",
"Q@	c #729F4E",
"R@	c #6B9587",
"S@	c #688E8D",
"T@	c #6F6F5B",
"U@	c #6D492B",
"V@	c #6D492A",
"W@	c #6B512C",
"X@	c #442C17",
"Y@	c #261504",
"Z@	c #470F09",
"`@	c #AF2020",
" #	c #7E1B16",
".#	c #251F0C",
"+#	c #4A652B",
"@#	c #699140",
"##	c #6E9953",
"$#	c #6C9681",
"%#	c #698683",
"&#	c #6C7266",
"*#	c #6B7065",
"=#	c #6B7466",
"-#	c #60817F",
";#	c #5E6160",
">#	c #8A6262",
",#	c #786261",
"'#	c #606862",
")#	c #6B8A6A",
"!#	c #6B9581",
"                                                                                                  ",
"                                                                                                  ",
"                                                                                                  ",
"                                                                                                  ",
"                                                                                                  ",
"                                                                                                  ",
"                                                                                                  ",
"                                                                                                  ",
"                                                                                                  ",
"                                                                                                  ",
"                                                                                                  ",
"                                                                                                  ",
"                                                                                                  ",
"                                                                                                  ",
"                                                                                                  ",
"                                                                                                  ",
"                                                                                                  ",
"                                                                                                  ",
"                            . . . . . . . . . + @ # . . . . . . . .                               ",
"                            . . . . . . . . . $ % & . . . . . . . .                               ",
"                            . . . . . . * = - ; > , ' ) . . . . . .                               ",
"                            . . . ! ~ { ] ^ / ( _ : < [ } | 1 . . .                               ",
"                            . . 2 3 4 5 6 7 8 9 0 a b c d e f g . .                               ",
"                            . h i j k l m n o p q r s t u v w x . .                               ",
"                            # y z A B C D E F G H I J K L M N O P #                               ",
"                            Q R S T U V W X Y Z `  ...+.@.#.$.%.O &.                              ",
"                            *.=.-.;.>.,.'.).!.~.{.].^./.(._.:.<.[.}.                              ",
"                            |.1.2.3.4.5.6.7.8.9.0.a.b.c.d.e.f.g.h.i.                              ",
"                            j.k.l.m.n.o.p.q.r.s.t.u.v.w.x.y.z.A.B.C.                              ",
"                            D.E.F.G.H.I.J.K.L.M.N.O.P.Q.R.S.T.U.V.W.                              ",
"                            X.Y.Z.`. +.+++@+#+$+%+&+*+=+-+;+>+,+'+)+                              ",
"                            !+~+{+]+^+/+(+_+:+<+[+}+|+1+2+3+4+5+6+7+                              ",
"                            8+9+0+a+b+c+d+e+f+g+h+i+j+k+l+m+n+o+p+q+                              ",
"                            r+s+t+u+v+w+x+y+z+A+B+C+D+E+F+G+H+I+J+)                               ",
"                            . K+L+M+N+O+P+Q+R+S+T+U+V+W+X+Y+Z+`+ @.                               ",
"                            . .@+@@@#@$@%@&@*@=@-@;@>@,@'@)@!@~@{@.                               ",
"                            . .@]@^@/@(@_@:@<@[@}@|@1@2@3@4@5@6@7@.                               ",
"                            . 8@9@0@a@b@c@d@e@f@g@h@i@2@2@j@k@l@m@.                               ",
"                            . n@o@p@q@r@_@s@t@u@v@w@-@x@y@z@A@B@. .                               ",
"                            . . C@D@E@F@G@H@I@J@K@L@M@N@O@P@Q@R@. .                               ",
"                            . . S@T@U@V@W@X@Y@Z@`@ #.#+#@###$#. . .                               ",
"                            . . . . %#&#*#=#-#;#>#,#'#)#!#) . . . .                               ",
"                                                                                                  ",
"                                                                                                  ",
"                                                                                                  ",
"                                                                                                  ",
"                                                                                                  ",
"                                                                                                  ",
"                                                                                                  ",
"                                                                                                  ",
"                                                                                                  ",
"                                                                                                  ",
"                                                                                                  ",
"                                                                                                  ",
"                                                                                                  ",
"                                                                                                  ",
"                                                                                                  ",
"                                                                                                  ",
"                                                                                                  ",
"                                                                                                  "};
