/* XPM */
static char * NO_xpm[] = {
"60 60 371 2",
"  	c #231A13",
". 	c #291E16",
"+ 	c #38291F",
"@ 	c #36281E",
"# 	c #2B1F18",
"$ 	c #3D281B",
"% 	c #3D281A",
"& 	c #3D291B",
"* 	c #3F2A1C",
"= 	c #412C1D",
"- 	c #3E291B",
"; 	c #402B1D",
"> 	c #452F21",
", 	c #452F20",
"' 	c #271C15",
") 	c #1F1610",
"! 	c #2D2119",
"~ 	c #30241B",
"{ 	c #32251C",
"] 	c #3B2B20",
"^ 	c #402C1D",
"/ 	c #422C1D",
"( 	c #3E291A",
"_ 	c #454545",
": 	c #424242",
"< 	c #393939",
"[ 	c #444444",
"} 	c #422D1F",
"| 	c #432D1F",
"1 	c #3F2A1B",
"2 	c #3F2B1C",
"3 	c #333333",
"4 	c #442F20",
"5 	c #422D1E",
"6 	c #402A1C",
"7 	c #3B2719",
"8 	c #1D1510",
"9 	c #2E221A",
"0 	c #281D15",
"a 	c #412C1E",
"b 	c #383838",
"c 	c #464646",
"d 	c #4E4E4E",
"e 	c #535353",
"f 	c #5B5B5B",
"g 	c #606060",
"h 	c #432E1F",
"i 	c #37291E",
"j 	c #636363",
"k 	c #616161",
"l 	c #575757",
"m 	c #5D5D5D",
"n 	c #565656",
"o 	c #515151",
"p 	c #5C5C5C",
"q 	c #595959",
"r 	c #646464",
"s 	c #525252",
"t 	c #626262",
"u 	c #5F5F5F",
"v 	c #422C1E",
"w 	c #2F221A",
"x 	c #31241B",
"y 	c #4F4F4F",
"z 	c #5F6061",
"A 	c #626363",
"B 	c #545454",
"C 	c #505050",
"D 	c #4D4D4D",
"E 	c #323232",
"F 	c #555555",
"G 	c #5A5A5A",
"H 	c #474747",
"I 	c #33251C",
"J 	c #515253",
"K 	c #5E5E5E",
"L 	c #525354",
"M 	c #5C5D5E",
"N 	c #3F3F3F",
"O 	c #515252",
"P 	c #525353",
"Q 	c #2F2F2F",
"R 	c #414141",
"S 	c #2C2018",
"T 	c #585858",
"U 	c #494949",
"V 	c #525253",
"W 	c #515152",
"X 	c #353535",
"Y 	c #271D16",
"Z 	c #545555",
"` 	c #4F5050",
" .	c #3C3C3C",
"..	c #262626",
"+.	c #3C2819",
"@.	c #3D3D3D",
"#.	c #4A4A4A",
"$.	c #535455",
"%.	c #545556",
"&.	c #201711",
"*.	c #5A5A5B",
"=.	c #2E2E2E",
"-.	c #3B3B3B",
";.	c #303030",
">.	c #292929",
",.	c #4F4F50",
"'.	c #2B2018",
").	c #434343",
"!.	c #4C4C4C",
"~.	c #3B2C22",
"{.	c #35271D",
"].	c #404040",
"^.	c #3E3E3E",
"/.	c #4B4B4B",
"(.	c #343434",
"_.	c #2B2B2B",
":.	c #373737",
"<.	c #484949",
"[.	c #464748",
"}.	c #484848",
"|.	c #221812",
"1.	c #2A1F17",
"2.	c #2E211A",
"3.	c #30231A",
"4.	c #37291F",
"5.	c #2C2119",
"6.	c #34271D",
"7.	c #37281E",
"8.	c #2D2018",
"9.	c #2F231A",
"0.	c #291E17",
"a.	c #211812",
"b.	c #2E2219",
"c.	c #281D16",
"d.	c #201712",
"e.	c #32251D",
"f.	c #656565",
"g.	c #37281F",
"h.	c #251B14",
"i.	c #1E1610",
"j.	c #2B2017",
"k.	c #392B21",
"l.	c #666666",
"m.	c #30231B",
"n.	c #2A211A",
"o.	c #382A1F",
"p.	c #392A1F",
"q.	c #201710",
"r.	c #241A14",
"s.	c #33271E",
"t.	c #251B15",
"u.	c #291D16",
"v.	c #3A3A3A",
"w.	c #2F2119",
"x.	c #251A13",
"y.	c #261C15",
"z.	c #4A4B4C",
"A.	c #494A4B",
"B.	c #3E2A1C",
"C.	c #3B2718",
"D.	c #363636",
"E.	c #2F231B",
"F.	c #2F2219",
"G.	c #422E1F",
"H.	c #3D291A",
"I.	c #241C16",
"J.	c #362920",
"K.	c #251A14",
"L.	c #2D2D2D",
"M.	c #272727",
"N.	c #271A14",
"O.	c #2A1D17",
"P.	c #2C1D17",
"Q.	c #2C1E17",
"R.	c #2B1D16",
"S.	c #221913",
"T.	c #34261D",
"U.	c #2D2019",
"V.	c #33261D",
"W.	c #1F1711",
"X.	c #313131",
"Y.	c #211711",
"Z.	c #36271D",
"`.	c #32241B",
" +	c #3E2A1B",
".+	c #221A14",
"++	c #1B140E",
"@+	c #33261C",
"#+	c #686868",
"$+	c #3C271A",
"%+	c #565657",
"&+	c #555556",
"*+	c #251913",
"=+	c #33251B",
"-+	c #5A5B5C",
";+	c #505051",
">+	c #535454",
",+	c #33231B",
"'+	c #302119",
")+	c #535354",
"!+	c #30241C",
"~+	c #505151",
"{+	c #575859",
"]+	c #3D2B21",
"^+	c #555656",
"/+	c #4D4D4E",
"(+	c #241812",
"_+	c #2A1D16",
":+	c #281A14",
"<+	c #454647",
"[+	c #434445",
"}+	c #434344",
"|+	c #34281E",
"1+	c #34271E",
"2+	c #48494A",
"3+	c #261C16",
"4+	c #33231C",
"5+	c #2C2118",
"6+	c #261A14",
"7+	c #31221B",
"8+	c #36251D",
"9+	c #2A1E17",
"0+	c #3E3F3F",
"a+	c #31251D",
"b+	c #30241D",
"c+	c #2A2018",
"d+	c #32241A",
"e+	c #32261C",
"f+	c #3D2E24",
"g+	c #241A13",
"h+	c #2F2019",
"i+	c #35251D",
"j+	c #221811",
"k+	c #261B14",
"l+	c #32221A",
"m+	c #442E1F",
"n+	c #3E2B21",
"o+	c #6B6B6B",
"p+	c #595A5A",
"q+	c #2F241B",
"r+	c #2D2118",
"s+	c #291D15",
"t+	c #3A271D",
"u+	c #696969",
"v+	c #676767",
"w+	c #37261E",
"x+	c #3D2920",
"y+	c #3B271E",
"z+	c #5C5D5D",
"A+	c #38281F",
"B+	c #3F2E23",
"C+	c #31241C",
"D+	c #282828",
"E+	c #2A2A2A",
"F+	c #414142",
"G+	c #565758",
"H+	c #4C4D4D",
"I+	c #444545",
"J+	c #454646",
"K+	c #464647",
"L+	c #4E4E4F",
"M+	c #4E4F4F",
"N+	c #4C4C4D",
"O+	c #464747",
"P+	c #252525",
"Q+	c #30251C",
"R+	c #271D15",
"S+	c #49494A",
"T+	c #2C2C2C",
"U+	c #1D150E",
"V+	c #241B14",
"W+	c #1E150F",
"X+	c #291F18",
"Y+	c #1A120D",
"Z+	c #19120D",
"`+	c #3A2B20",
" @	c #2D221A",
".@	c #34281F",
"+@	c #31251C",
"@@	c #35281D",
"#@	c #221912",
"$@	c #36271E",
"%@	c #18110C",
"&@	c #3B2819",
"*@	c #34261C",
"=@	c #442E20",
"-@	c #372920",
";@	c #717171",
">@	c #6F6F6F",
",@	c #32251B",
"'@	c #38251C",
")@	c #412C22",
"!@	c #3A261D",
"~@	c #1C140F",
"{@	c #241712",
"]@	c #2F1E17",
"^@	c #211912",
"/@	c #2C1D16",
"(@	c #3D2A21",
"_@	c #2A1B15",
":@	c #291E18",
"<@	c #3E2E22",
"[@	c #3A3A3B",
"}@	c #404041",
"|@	c #444446",
"1@	c #3E3E3F",
"2@	c #2B1F17",
"3@	c #261C14",
"4@	c #3C281B",
"5@	c #1D140F",
"6@	c #39281F",
"7@	c #36241C",
"8@	c #1D150F",
"9@	c #3A2B22",
"0@	c #36281F",
"a@	c #251C15",
"b@	c #2C2017",
"c@	c #201812",
"d@	c #3B2C21",
"e@	c #2D1F18",
"f@	c #281C15",
"g@	c #454648",
"h@	c #3A2618",
"i@	c #2F2F30",
"j@	c #444445",
"k@	c #4A4B4B",
"l@	c #515153",
"m@	c #4F5051",
"n@	c #271913",
"o@	c #322018",
"p@	c #4B4B4C",
"q@	c #3F2A1D",
"r@	c #383839",
"s@	c #39393A",
"t@	c #424243",
"u@	c #39251C",
"v@	c #312018",
"w@	c #271812",
"x@	c #251B13",
"y@	c #271C14",
"z@	c #3E2E24",
"A@	c #32241C",
"B@	c #231913",
"C@	c #2E1F17",
"D@	c #231912",
"E@	c #3B271A",
"F@	c #35291F",
"G@	c #362A21",
"H@	c #36291F",
"I@	c #402B1C",
"J@	c #2F241C",
"K@	c #2C211A",
"L@	c #646465",
"M@	c #403025",
"N@	c #271E18",
"O@	c #404141",
"P@	c #474748",
"Q@	c #30221A",
"R@	c #353536",
"S@	c #3F3F40",
"T@	c #3C3C3D",
"U@	c #3B3B3C",
"V@	c #6A6A6A",
"W@	c #31241A",
"X@	c #2E2119",
"Y@	c #281F18",
"Z@	c #30241A",
"`@	c #2F2319",
" #	c #58595A",
".#	c #59595A",
"+#	c #4C4D4E",
"  . + @ # $ % & * = - ; > , ' . ) ! ~ { ] ' ; ^ / ( - _ : < [ [ } } | ; 1 2 3 3 3 4 4 4 5 $ 6 6 7 8 # 9 ) 0 a * - - } 6 ",
"b : c c d d e d d d d f g h i j k l m l n o p m q q q r s % q t d n t t u s n n o o d > v w x y o l z A f B y e C B o D ",
"E D F G B e p F d s l m e H I o n n d J d d t K u k k K k & B K d d C L d l M f f e d e N I D y d d O d P d d d l l d d ",
"Q R G d d d d d d d d d e _ S C d n C C d d d d d d d d T ; U T C d d V d d V W y d d F X Y d s s s Z V W ` d d d d d [ ",
"Q  .q d d d d d d d d f q N ..y q C J d d y d d d d d d T +.@.l #.d V $.L P %.V d d d d < &.d F d d d n *.y d d d d d @.",
"=.-.K p u k q e l l n s c ;.>.@.c c %.%.,.%.` d d d d d d } / '.N ).d d d !.D V d d d e b ~.!.e d d d d q n F F F e U @.",
"{.b  .].[ ^.N /.#.-.-.].-.(._.:.R H B <.[.R -.-.^.R N ^.}.| = |.1.2. .N ^.H 3.@.).c d e s 4.@.R R @.N R R R [ H c ).N ^.",
"5.) &.6.7.{.8.9.0.a.b.c.d.1.0 e.C l l l n H 5 F l l l / / v f.f f g.3.h.i.] { j.k.r r l.K m.B o }.c.x &.5.n.f.f.u k j r ",
"d q F d d d o.p.q.a.c.k l.g g p l l m k f @.d d d d d o s e l o d d d U r.m.G G G T e d d T n s d e l &.s.).s d s B s C ",
"e s n l d d T t.'.1.d d d d d d d d d d q ].y B d d d d d L d d d d d d -.t.d y e s s s s s y d d d d u.9.}.d d d d d d ",
"d d d d d d d b.@ B d d d d d d d d d d q : R D /.U d d d $.L d d d d d v.w.d d d d d d d d d d d d d q x.H o d d d d d ",
"d d d d d d d y.C o d d d d o C s d d d p ).c }.d e V z.A.c A.c U /.d d v.).d d d d d d d d d d d d d q Y : T d d d d d ",
"T G f G d D U % -.].d d d o o D !.U e d B B.N R U /.d n n n n s d y e d -./.U d d d d d d d /.U U U c U h.^.B o !.d d d ",
"/.!./.b R  .N C.].[  . .v.v.R R -.D.#.U _ E.X X H c c U /.H c }.[ c H U v.@.R : c !.d D U #.#././.H ).[ F.: R R H _  . .",
"; 1 v G.; 6 H.$ y.c.R R 3 D.b I.J.{ K.Q 3 a.L.=.M.N.O.P.Q.R.' S.T.T.S U.V.b.W.. k.=.Q ;.X.9 W.Y.8 c.! Z.`.F. +1 = ;.X.3 ",
"B T f [ < /.n K d e f l t K d B .+++{ . y @ k G G m l l n G f m q c.0.r G l C T e !.B d d d d d [ L.: T g K G l n u G d ",
"d d m c ;.c T d d e d d d n e d d W.&.c q p d d d d d d d d d d o @+/.F d B T T l l l #+k l n s : =.U C d r r g g u p T ",
"d d g }.Q H n d d d d d d d d d d q Q.-.d n d d $.L d d d d d d B ~ /.d F B e e d d d e d d d d R ;./.c s d d d q d d d ",
"d d n ].$+U d %+d d d d &+y d d d q *+].d d d W W d V d d d d d !.=+U d e J L L L L d d d d J ,.].(.}.: d d d d s d d d ",
"d d n N 6.}.l -+&+d d d ;+Z >+d d C ,+'+d d d W d d d d d d d d )+!+: q F ~+d d d L L d y {+L d ].]+c [ d d d d d d d d ",
"d d d -.S -.: d ^+/+}.c c c c d d (+_+(+:+/.D <+[+}+,.d d d W d J |+1+d d D U U [ ).).).<.2+c /.].9.E v.R H d d d d d d ",
"_  .< _.T.{ x 3+v.N R N ] 4+! b.5+w.6+7+8+D.H <.7.# 9+v. .0+_ c N a+b+c+ .N R R :.) d+] e+f+!.}.g+a.D.:.^.R -.-. .: : ).",
"d j j m j h+i+N.j+k+l+m+n+o+B e q l n n F e U %.p+T r k T u f K f g p  +^ v p.f l f q q G q j r j q+G E.r+r.b.E.= j g K ",
"k r d B l F l . s+u.} t+q u k m u G F u m /.o u+v+u+v+g r f l l l l n l.d & T q q d d d d d d d d d d f 3.D m r K f n n ",
"d s d d d q n @.w+x+y+n d d d d z+d C d d H C G d d d d d d d d d d d q H ; d d d d O V P P P d d d d d A+3.l d d d d d ",
"d d d d d d d b c U O s d d d y ` y d L P /.C y d d $.L L d d d d d d q H ).d d d J C d d d P $.;+L P d B+-.n d O J d d ",
"n d d s }.U d (.R /+d d ` d W ;+d V L y ,.C+o d d V d ` $.,.d d d d d T H : d d W J d d d ;+~+W d d d d D+ .s ` W V V P ",
"s o o e #.#.}.E+F+J G+J H+I+J+K+[ U /./.H m.: d !.L+/+M+N+}.}.}.}.U /.!.H = d U [ O+_ J+J+U U U U U d d P+@ R H H H H }.",
"-.v.< D.@.^.N Q+-.b ^.!.}.[ }.H R @. .. R+. &.N U U O+A.S+D c c c c H B 6 -.-.X.;.X.3  .N -.< X L.T+=.< 3 6.: R : : : H ",
"E+P+M.M.X.X.L.q+U+3 ;.v.v.b C+V+y.W+'.X+Y+Z+c.5.'.T+@ `+ @.@+@m.@@;.~ #@#@= ; 6 $@3.2.! %@' a.d.&@! @ `+0 *@*@3 X b ; = ",
"=@T f B d F T T f q F e d : `.C B n p m u+u+v+t k t k 1.r+-@E.y F C F f U d d d G G l   j.. ).T l q q k m t T n e l B H ",
"| #.K f.l.K f F l.;@>@#+g :.! F y T F l l l d d d m K G ,@F.'@)@u y l t g T e d f m F l s ,@H u q T s o d d d d B n o F ",
"} U d d d d d d d d d d d X 9 B d n B d s s d d d d d d '.T.!@)@d d d d /.U #.#./.d d s !.I ).T T d d )+d d F n o d H c ",
"= U d d d d d d d d d d B ! ~@e d d d d d d d d d d d H - {@]@)@d d d d d d d d d D d n #.^@N y G d d )+L J d d d d U D.",
"v c }.H c ].N H H U !.d n E ' y d d d d d d d d d d d d ! . /@(@d d d d d d d d d d d d #.r+^.d G o d d d J d d d d [ ].",
"_. .U U U U U [ [ [ }.C F ;.! : [ y B n y C s o d d U U S w _@:@d c -.@.R ^.U }.: N ).: _ <@x d q d d d n l n n n n !. .",
"Q  .[ -.N }._ -.< :.).D T V.S [@}@^.^.I+|@[+1@c H ).R 9.m.8 9+`.{ 2@3@C+~ x 4@:  .: _ m.I '.. 9.(.-. .).@.N ^.).N R ^.E ",
"d H /.T.m.Y y.n C C C C C _ /.s B !.,@{.`+i.5@y s m.}.D B c c 9 @+6@7@d C d d l n C K u+k q q R+8@Y 9@0@s.a@g+b@h !.o n ",
"d d d  .w c@n q t t m T n o l l G o d@<.d K T n s f q q v+l.f o |.e@b R d e G B l f p d d d d d W.b.3.'.k g f.f l C n K ",
"d d d -.9 y.d d C d d d s l l d d U 2@_ d d n n C d d d l f e d 8.c.v.d p d d L L d d d d d d d H ,@[ d T d F n n n n n ",
"d d ).D.6 ^ d d d d d d d d d d d H 9 D./.d ;+d d )+` d d d d d f@x ].l n d L L L L L d d d d d H I c n d d d J J d d d ",
"d d [ @. + .d d d d d d d d d d d R c.v.U d ;+;+d )+d d d d d ,.g@! H c d y J d )+)+y d d d d d [ 9.c H d d J L L d L J ",
"!.d ).X h@v b ).H H H : H H H c }.N h.i@j@k@z.l@m@d d d ;+;+;+` <+n@o@F+p@H H H c c d d d d d d R 0./.H d ,.d d L L d d ",
"b b b :.% q@D.< -.N N R H s F !./.g.c.r@v.=.s@< [@[@ .t@U U H : -.u@!@v@w@R R : : : -. .N R @.@.< x@).R -.@.@.R R R R R ",
"@. .b v m+3.#@q.y@#@3 b b b : ^.'.' a.1.I 3.I R+3 3 (.X D.w 7.w z@A@0 B@u@C@a.D@h.w 2@,@{ ,@0.Q b 5+. ' S '.E@= q@$ & $ ",
"T m g F s d o f l.2@F@G@H@d d d d q k g T p T T s I@e T t f K l n B s }.c k g D < [ d y B o y d [ q q q d d d % $ B n d ",
"T T k k q r t u K T J@K@l q k l.L@A T T T T l p H ; U d d d d T n s d T T T T }.< [ d }.U d n q q q d d l q n n $ H d d ",
"d d d d )+L P d d F + M@d d d d V L d d d d d d <+= H d d d d d d d d d d T d R @ [ d [ d d d d d d d d d d c q@- c d d ",
"d o >+>+d P P d d d  .^@/.d d d ~+L L L $.L d d _ v R [ d d d d d d d d d d d R 3.[ d [ d d d d d d d d d d /.d q@c d d ",
"d e d P O O W d d d  .a@H d !.d ,.d L d d d d d }+{.[ [ ).H }.U d d d d d d d :   U /.[ d d d d d d d d d d d d a : d d ",
"].c N N N t@W J W d -.N@[ !.U R c H H R : c H H @.T.O@J+I+<+P@d ` U U D d d c N @ _ _ [ ^.R < ^.H c _ N )./.d d < N d d ",
":.D.v.N R @.a.E b : < '.Q@u.c.(.3 (.E -.b D.[ /.).3 :.;.Q =.i@R@v.S@T@U@1@K+{.,@b.H :.@. .v.@.-.^.N ].#.: ].% * } * m+; ",
"o+V@r T l C m _ n W@v+,@g u F d d d d l l g+U.w X@w w '.d d F d d Y@g+m.Z@j.3.E.d d d d d d d T n f 1  +1 $ } v 4 ^ T d ",
"q G G d d d T m.: !.d d d n F B p l d d n ! ' B g m t r r g T T l k t ] `@) j.T r r r j g q g n s l #.!.=.H K v+G G j j ",
"d d l e f f n x d n d T T T T T T d d d T ,@0.d T d d d o o d d d d d G H ' H F d J J V  #.#L d d n f D >. +}.d d d d d ",
"d d d d d s H a.y d d T d d d d d d d d d Q@R d d d d d d d s s d d q q c t.s d d ~+d d L L L d d d F s D+1 p@L L d d d ",
"d d d d d d #.; _ o d d d d d d d d d d d F.: ` d V L L L d d s o d q d c o d d d d d d d L L W d d d : E+)./.d d L L d ",
"d l T n n F }.= ^ !.}.d d d n l e d d d d W@}.` C V d >+)+d d d d d d d N ).D H !.d d d d d d y d d d ).;.c c d d d d d ",
"d d d d H U -.^ = D.X @._ /.T G d d d d d = F [ H H H +#H H H ].R ^.].[ : -.< ]._ _ _ c U D d d c c c : < N @.).N ^.@.@.",
"v. . .b @.N < * = 6 =@E X 3 3 ;.T+X.:.(.< 6 ; X (.3 3 X b @. .-.: ^.[ ).v.-.L.D.:.b v.D.-.D.X D.-.c : c 3 c  .H ).R ^.^."};
