/* XPM */
static char * SO_xpm[] = {
"60 60 212 2",
"  	c #363925",
". 	c #343724",
"+ 	c #353B25",
"@ 	c #444B2C",
"# 	c #505633",
"$ 	c #302117",
"% 	c #302016",
"& 	c #412D20",
"* 	c #383C27",
"= 	c #332218",
"- 	c #412F23",
"; 	c #3B291D",
"> 	c #3E2B1E",
", 	c #422E21",
"' 	c #402C1F",
") 	c #3F2C1F",
"! 	c #2F341F",
"~ 	c #323522",
"{ 	c #443023",
"] 	c #3E2B1F",
"^ 	c #432F21",
"/ 	c #373A26",
"( 	c #373B26",
"_ 	c #3A3E28",
": 	c #363A25",
"< 	c #4E5432",
"[ 	c #383723",
"} 	c #353521",
"| 	c #4D5331",
"1 	c #3A281C",
"2 	c #38261B",
"3 	c #3D2A1E",
"4 	c #362519",
"5 	c #37261C",
"6 	c #484F2E",
"7 	c #3A281D",
"8 	c #39271B",
"9 	c #433023",
"0 	c #37261B",
"a 	c #4D5332",
"b 	c #494F2E",
"c 	c #463124",
"d 	c #38271B",
"e 	c #525734",
"f 	c #402C20",
"g 	c #3C2A1F",
"h 	c #432F22",
"i 	c #333320",
"j 	c #505533",
"k 	c #32321F",
"l 	c #4B512F",
"m 	c #3B291C",
"n 	c #352419",
"o 	c #2E3220",
"p 	c #34241A",
"q 	c #303421",
"r 	c #414829",
"s 	c #323622",
"t 	c #30301D",
"u 	c #4A502F",
"v 	c #4C5231",
"w 	c #2E311F",
"x 	c #38261A",
"y 	c #3D2B1F",
"z 	c #2C1E15",
"A 	c #3B2A1F",
"B 	c #2D301E",
"C 	c #3B2A1E",
"D 	c #342319",
"E 	c #2D1E15",
"F 	c #3C2A1E",
"G 	c #413024",
"H 	c #312117",
"I 	c #4B5130",
"J 	c #464D2D",
"K 	c #2E1F15",
"L 	c #37261A",
"M 	c #37271D",
"N 	c #3F2B1F",
"O 	c #4B5230",
"P 	c #36251A",
"Q 	c #412D21",
"R 	c #39271C",
"S 	c #322218",
"T 	c #2E2E1C",
"U 	c #3B281D",
"V 	c #3B281C",
"W 	c #3B291E",
"X 	c #484E2E",
"Y 	c #342419",
"Z 	c #322217",
"` 	c #3C291D",
" .	c #422D20",
"..	c #432E21",
"+.	c #302017",
"@.	c #37251A",
"#.	c #3C2B1F",
"$.	c #39281C",
"%.	c #494F2F",
"&.	c #3A291E",
"*.	c #322117",
"=.	c #3B2B20",
"-.	c #35251A",
";.	c #333623",
">.	c #3D2B1E",
",.	c #35241A",
"'.	c #2B2E1D",
").	c #402D1F",
"!.	c #343824",
"~.	c #515734",
"{.	c #342318",
"].	c #353824",
"^.	c #383B27",
"/.	c #3A271C",
"(.	c #412E21",
"_.	c #343723",
":.	c #363A26",
"<.	c #4D5432",
"[.	c #412F22",
"}.	c #362419",
"|.	c #38271C",
"1.	c #343420",
"2.	c #363622",
"3.	c #353925",
"4.	c #2E1E15",
"5.	c #2F2018",
"6.	c #525835",
"7.	c #4C5331",
"8.	c #383B26",
"9.	c #313422",
"0.	c #36261B",
"a.	c #373722",
"b.	c #332319",
"c.	c #333723",
"d.	c #313522",
"e.	c #2F3320",
"f.	c #2F301D",
"g.	c #373723",
"h.	c #4F5533",
"i.	c #4A5130",
"j.	c #2F1F16",
"k.	c #33241A",
"l.	c #422E22",
"m.	c #483326",
"n.	c #3D2A1D",
"o.	c #32231A",
"p.	c #3F2D20",
"q.	c #442F22",
"r.	c #332318",
"s.	c #3E2C20",
"t.	c #515634",
"u.	c #353924",
"v.	c #3C291E",
"w.	c #33331F",
"x.	c #3F2D21",
"y.	c #2B2F1E",
"z.	c #2D311F",
"A.	c #4F5432",
"B.	c #36241A",
"C.	c #2F3220",
"D.	c #402D20",
"E.	c #3C2A1D",
"F.	c #303320",
"G.	c #2F2F1D",
"H.	c #31311E",
"I.	c #402D21",
"J.	c #2F2016",
"K.	c #525735",
"L.	c #2D1F16",
"M.	c #3A291F",
"N.	c #49502F",
"O.	c #322219",
"P.	c #343421",
"Q.	c #35261B",
"R.	c #464D2C",
"S.	c #2A2D1C",
"T.	c #2A1C14",
"U.	c #2E321F",
"V.	c #34321E",
"W.	c #3E2D21",
"X.	c #353421",
"Y.	c #363521",
"Z.	c #363621",
"`.	c #33311D",
" +	c #302116",
".+	c #393C27",
"++	c #303321",
"@+	c #383823",
"#+	c #412C20",
"$+	c #393D27",
"%+	c #3A2A1F",
"&+	c #4E5331",
"*+	c #32241B",
"=+	c #313421",
"-+	c #3D2A1F",
";+	c #393924",
">+	c #4F5532",
",+	c #373622",
"'+	c #453024",
")+	c #3A3D28",
"!+	c #393D28",
"~+	c #2E1F16",
"{+	c #545936",
"]+	c #4C5130",
"^+	c #34251A",
"/+	c #35251B",
"(+	c #3E2C1F",
"_+	c #2B1D14",
":+	c #323623",
"<+	c #474E2E",
"[+	c #2F2F1C",
"}+	c #473225",
"  . + + @ # + $ % & & * & & = + + - ; > , ' ) ! ! + + !   * * * ~ + ! + ! & & > { ] ] ^ & & @ ! / + ( _ : < * + +   [ } ",
"| ! + .     + 1 1 & ; & 2 3 { 4 + + 5 + + + 6 ! + 7 + + + + + + + + +   .   8 . 9 ^ { 0 + & ! +   ! ! + a . * @ + +   + ",
". .   + +   b ; 8 & & ; ^ { c c d e +   +   * * f g h -   }   * } } }   . * . i } . j 7 } ! *   . *     +     [ k .   l ",
"+ }   [ } @ l m n   o *   3 f 3 ~ ~ . ~ .     * . p       [       i } i   q . .     + + + r *   * * *   * s t } i . . . ",
"i i . } } + @ + + u v *   w x y ~ ~ @ ~ + o     3 z A   @ +     . * }     B o + + . .   + C     + + + + q o s   . ~ ! ! ",
". + @   ; ; + + + ! + + . * D *     ! ! . !     ) E F $ + !   @ r ~       + < @ + ! .   G p 3 !     r + + .   H k i + + ",
"  + r + + ; + I J . * + r   & K L + ! ! . * ! *   ; ^ ^ + . r + +   + | @ + * * s @ !   M % N         .   . . > } + + + ",
"O + + . . & . q q     * *   > P Q c + + ~ .       ] R S .   t T i * !   *   ~ o q .     ) 2 U V . . . . . .   & [ ! ! * ",
"+   . . + 2 P o q q     *   + R W ^ 3 !     . .   X N , , q o T     6 ! * * ~ q   ~     ; Y Z ` & . . .       & & *   + ",
"! . . ! + , { . . s q *     @ + 8 ; S P ; *     * '  ., ..` . . * q | @ r * o B o . . . & & & +.) & . } . b + & & ; . + ",
". . i ! + + = @..     !   + @ ! + P & & & &   r + #.@ $., ; ; ; ; & %.@ + q   o l . ~ + @ & + K > > 1 } +     & P P & & ",
"n &.i + q q 2 *.. ! < + !   +     + + ; P ; E A =.! + -.1 1 P S P ! ! ! n ! + @ @ . + ;.r + + = >.> V   } *   ;   ; P ,.",
"    i + +   3 . .   *     .     * *   * S + r + A P q q   * * *   + !   & 1 o '.o     + ~ @.> f     . . i } * ).!.    . ",
"    . @.< & 3 .   + + s o   } i   * ~.  } [   * & {.s @ [ + * * * *     Y 1 3 ~ !   ].! | - :     X   . . . ].: ^.;.. . ",
"    /.P . 2 *   + u < q q s } i   . + + + [   } } 0 * + @ + +     *     (.- ,.3 r   / / ! 7 2 / !.| + . _.:.:   ^.@ / @ ",
"+ <.`  .]   [.(.+ ! . +   * r *   ! + + * @ . . . A * s ! + ! + + + +   }.|.8 1 + . 1.1.2.x ].( + r ! +   * _.  3.( ! @ ",
"q + = 4.|.A (.[.+ .     I ! + } ! + I i . ! * ! . 5..   r [   + ! + + + + + L ! + 6.^ { c 2 ;.7.8.  ! ! _._.  _.} <.r ].",
"9.q S P 0.A - (.s . .   . . . + } } [ }   . * + P ..... + + . .     ~   * ..+ l r + ^ ^ c { ( } }   : :.i i ^.a.} a.].].",
"; S S ; q b.C 0.S . .     * +   }   }   . . . @./...q   + +   . * * ~ . . * + c.& 0 ; ] { d.e.f.}   : !.i g._.; a.( ( ].",
"; & & & ! z ] c Q . P * + h.+ + i.} } *     ; j.2 3 q   * *   . * *   + r     & & & > P 2 Q k.  _.. !./ ^._.  l.Q ( ;.& ",
"; & & @ ! + + m.m.` H n.+ h.*   + + } ! + * r R ! l S q * *   . .   * ~ *   . c.; ; 1 3 R 8 8.  8 * ) ].{ { 8.R { H P & ",
"o.3.p.+ + # + q.r.(.] 0 !   *   + * * * . + ! + * ! A s ; * o s @ +     . * ^ 3 n >.& a.& ! -.[.8 & 8 ^ c c P ! 0 & ; ) ",
"G y R q 7.! .   . . . * * + * ! . *       . * + @ s.U /./.* . *   t.    ) { c   + / ].u.@ 8._.. : ]...v.^ b.& + & 0 w.x.",
"@ y.'.  + .     o + * * * * *         !       7.* N ,  .* ! . . * *   > ` ] 3   + _.( 8.8.  .   : 7.@ v.S & & 8 & 1 & + ",
"+ w z.. + * s @ t + ! +   * .       + + A.~.  1 n N B.L 3 * +   * * * > P 1 + . . + .     . / _.!.+ @ @ P & & n.& d ! + ",
"! + +   < q s @ k k r ! ! * *     + +   + <   ; ` > 2 { N * + ! 7.[ [ 8 ; + X +   *     . q C.o a     + + P & & n @ ! ! ",
"u.< + + ! ! ! + ! . @ * * * s       +       +   ; % { c D.; t [ @ r s & & + + * ~ * * ~ . > d E.@   i + @ a.; & c.u | 3.",
"3.3.F.. + h.    ! * +   * .   .     ! .         n , c { ` ; t * . q A & *     q B i } }   ; d & > 8 f.@ G.H.e.& ;.e.e.d.",
"~   . . +   .   * +         * +       .     *   0 { c ) ` 3 i       A (..   [ t T i   I.{ Q & & & ! ( d.( w r & ].e.d.e.",
". ].. . +   .           .   + ! . . .       * > Y ] Q h 7 ] S P     C & ` . i i . *   ; ! + S D d.e.( ( + r ! v @ e.z.e.",
": 3.3.r + + + + @   * @   ! i . + .     8 ; L P J.S   d 0 2 P P ;   & ; `   . . !.p @ + + K.! ......= n.< ].].! + ! / ( ",
"].].].+   + + ! + ! + + +       . # L.= N ` {.; 0.[.; 0.>.).E & & & & & &         M.+ + . . @ N...2 h R ( ( / / / ! + !.",
"].].;.;..         *   q B o   *     ` N N , q q - G .   =.        . ; P O._._.].!.P.! 1.Q.  + r _.3.3.u.].( ].!.!.:   ;.",
"!.;.;.3.* * * *   *     . _.} 1.!.3.. . @         -     I !   s q ].b.c.c.].+ ].: w.1.].-.  . . . v + 3.].]./ !.!.  + + ",
"+ + C.3.* *   * + + . + _._.} i 8.@ + ! ! q q o - [.. ~ R.q ! + C.w $.s.!./ r + + @ ]./ > ) *   ~ ! + + e.].]./ !._.! ! ",
"+ + : !.. . i 6 J + ( + ! _.} } 3.+ : ~   + q   M A i ~ o o / < + ].: w.].r @ + ( + } a.n S   . +   + ].G.} k ;.( + + 1.",
"/ / !.( ~   . @   ~ + S.! +   c.3.! ;.!.:.+ @   @.T.$ + .   U.].3.! 2 P H.+ ( 3.( 8.V.} y W.. ! + 7.  . ! + : ].8.+ 1.1.",
"/     . . .   } X.    _._.^._._._.8.( ( a.u._.  . > Z D.l.( / 8.  s + > 3.3.} 8.8.a.} } E.7 = 8 ~ . . .   . . (   u._.  ",
"* *   . + .   Y.].    .     ! + ^.8.8.a.a.}     2 & m , |./   3.!.@ + ~ a i a.^.        !.> & D.. . . .   ~ ~ ! 3.3.    ",
"* * ! ! . + + . _.!.* * * * | + + ^.  ^._.} : / & >.E.R H 3 _.( : + + @ + }   ^.^.  ^.  & & &   ; . . . * .   !.+ ( 8.* ",
"* s ! +     @ + ].: : Z.* a * * + @ ^.^.*   ^.^.% & 1 Z E.3 ~ + + + ].. @ @ _.^.; & & & k `.R 0 n.~   * * 8.  !./ @ ( 8.",
"* q 8 m > > > : 8.].2.1.1.* * .   * * * *   : : :.z.d  +> !.w U.e.].;.;..         & & & & { { P &   : : .+: : .+/ ( ( ( ",
"* * & P   r.n q : ].;.1.: : * *     * .   . q q . z...E 8 c.  ++o c.c.3.*   * *   * :.; P ] { l.1.].3.3.].2.@+]./ / ( ( ",
"! n 2 {.. ~ q q 3.].! : !.: * : :     @ * C.q   . #+../.D !   _.s   . ]..+( .+.+^.!.!.!.& P   w.1.+ !   ].2.@+$+/ / ( ( ",
"/ 8 r.F %+. *     < &+: !.* : : : < @ +   : ].].*+P @.P ; >   i   !.!.!.* * @ r ! : : !.& ; : k ! + + r / / / / =+r + / ",
"].b -+v.C . . + + . + + .+: .+:..+! ! ! + ! +   C (.S & + + + + + !.!.: 1.!.+ : + 6 * * S ; / ;.+ q d.+ ;+2..+* .++ ! ! ",
"3.  { ; L i ~ @ + . .   | @ + @ < >+^.3.1.+ + *   ; ; ; ! s !.!.! 2.].1.2.: : r !.!.* !.1.1 ( 3.+ q d.+ ,+} 8.~ =+/ / ].",
"1 8.'+0 k T B B ~     .     * )+8./ ~ i i   + * . n ,.2 e.: ].].1.2.$+/ 2.: ;.s !.:   * > ` / *   !./   :.!+q ;.* ]./ / ",
"1 > ) 7 ~ ~ ~ . . . . .   *   } i ~ . i .   * *   N ) N N > ( ( a.,+/ ! / :.: !.:   * * @.7.]..   !./ 3.} : ! + * ].].].",
"1 ~+1 3 ~ . . . ~ . . . * ! {+} i ~ . . . . . ! ! L  ., ..n.0   .   + ! + .+!.!.    (.( + + ;.  8.. ]./ + [ ! ! ! ^./ ].",
"$.S & ; ~ q ~ . . q o o . + @ h.]+* s..     N.+   |.% V n C ^+1 f ) | + + /+r.J.E.] (++ + ! + +     ].3.! ! :.:.! : / ;.",
"1 & & & ++q _+~ ~   o i i @   ~ A [.G W.(+P *     [.A P H s.&.{.* 3 | @ /.` 8 n r.8 W 8 . q + + + I ~ ^.* * * * @ / :+=+",
"].  & & & ; b.) D & ; ~ .     ~ ]   C       m P . 0 ) )     *     + + ! ! ' & _.).> & > + : <.3.3.3.++)+  8.8.    : / * ",
"  . . . & P S $.& D.    .     { c   . . +       ) D.*     . * *   q +   . . 3 P _.) & & !.+ ( u.! + ( ( ( )+)+!+!+( ( + ",
". . . P ; & n n b.#.s.        c c e . + ! !   . ) ` . + + + *       i i . .   r   ; ; & ; 2.].+ + + 3.!+( ( / / $+$+| . ",
"@ ~ < P P H 1 c.P . + - . . . R } <+r . @ A.~ . 1 & . @ ! + r h.} + `.i i . + b ! !.K S S 2.].+ + @ ! / / ].].!.* !.+ + ",
"+ + + j.H % 4 L , ! . + ~ u + ; } + ~ ! @ ! + ! ; & q ~ ! q * ! h.@ r u a !     ! + + & & > / + + + r + @ ;.!.    ! @ ].",
"  . .   ~ V V P h !   p . . . 3 ! ~ . ~ ~     . R ; }   o o * *   ~ r ! [+.   + v a & & & 8 $+/ + $++ + / !.  ].( / 3.. ",
"  ~ .   ~ ` + Z !   }+3 . . . &   ~ . . .   ~ ~ + P . .   . * *   ~ . i ~ . >+~ + 3 ; ; & / !+3.]./ / ( ].!.]..   3.. . ",
"    . . ! r < + }+Q 2 * & i } @.B ~ q ~ ~ . * . + y n..     * * * . @ + . ~ & > ^ ^ = 1 & ].    ( * !+: * .+!.+ / *   . "};
